<svg xmlns="http://www.w3.org/2000/svg" viewBox="0 0 936.57 140.55"><defs><style>.cls-1{fill:#fff;}</style></defs><title>Recurso 1</title><g id="Capa_2" data-name="Capa 2"><path class="cls-1" d="M78.72,0h2.57c2.25.19,2.15,4.13.88,5.4C47.07,31.63,32.32,66.16,19.94,114.11c-2.66,1.58-2.66-2.16-3.15-2.16.2-17.79,6.4-38.14,10.43-50.23C36.15,41,45.3,24.48,62.31,10,70.55,2.94,72.44,2.28,78.72,0Z"/><path class="cls-1" d="M59.26,4.91c-29.5,23.69-43,60.64-45.61,99.87-.5,3.14-3.14,0-3.25-.48-13.87-21.13-13.87-51.13,0-70.79C20.42,18,35.56,8.35,55.13,5.4l4.13-.49Z"/><path class="cls-1" d="M93.75,7.47c2.38,0,4.44-.9,6.4.88.3,0,.7,3.74-1.47,4.14C63,42.36,45,75.78,27.6,119.81c0,.2-.68,1-.68,1-.3.41-1.87,0-2.47.41-1.26-.41-1.26-1.29-2-2.27,5.11-22,14.85-42.86,23.7-61C57.58,39,71.54,16.41,93.75,7.47Z"/><path class="cls-1" d="M113.13,18c1.67,0,2.92-.76,5.21,1.76,0,.8,0,3-.8,4-31.25,22.9-57.78,53.37-73.13,87.86-3.24,5.81-4.57,8.65-8.06,14.25a4,4,0,0,1-3.05,2,18.79,18.79,0,0,1-2-1c3.05-14.26,11.39-29.5,18.77-44.15C63,56.7,85.51,30.26,113.13,18Z"/><path class="cls-1" d="M125.52,33.8c1.92-.75,3.43.3,4.7.9a6.17,6.17,0,0,1,1.48,3.43c-26,18.57-56.23,42-72.55,71.18-4.81,8-9.63,15.33-13.85,22.9a4.58,4.58,0,0,1-3.74.39c-.39-.39-1.66-2.28.49-4.82,15.53-34.21,35.68-67.13,71.08-88.07-2.37,1.56,7.17-4.52,12.39-5.91Z"/><path class="cls-1" d="M130.52,53.76l.5,1.29c5,18.76,0,43.34-12.68,57.49-14.47,17-34.9,23.88-56.93,22.22-4.11-.88-6.19-.88-9.72-1.68,14.06-31.15,41.86-66.55,78.83-79.32Z"/><path class="cls-1" d="M163.92,115.24c6.36,0,8.38-3.18,8.38-7.24V54.11c0-6.66-4.45-6.91-8.38-7.32V44.05H194.7c28.25,0,37.42,19,37.42,35.86,0,20.11-10.88,37.17-36.32,38.05H163.92v-2.72Zm24.72-7.45c0,4.38.9,6.35,5.75,6.35,11.31,0,20.18-7,20.18-33.15,0-10-2.32-33.22-19.67-33.22-6.46,0-6.37,2.74-6.26,5.13v54.89Z"/><path class="cls-1" d="M255.85,66.24c13.21,0,22.7,11.49,22.7,26.66,0,14.56-9,26.6-22.7,26.6-14,0-22.81-12.37-22.81-26.6s8.78-26.66,22.81-26.66Zm.1,49.86c7,0,7.76-9.3,7.76-23.2,0-16.83-1.71-23.26-7.86-23.26-7.47,0-8,10.83-8,23.26,0,11.84,0,23.2,8.08,23.2Z"/><path class="cls-1" d="M341.58,70.18c-1.92.44-3.33.65-5,5.46L320.9,119.5h-2.32L308.5,86.37H308l-12.3,33.13h-2.42L278.32,78.61c-2.61-7.13-3.11-7.89-5.73-8.43V67.56H295v2.62c-1.42.22-3.84.44-3.84,3.28,0,2.29,3.44,10.63,8.48,25.26L306.48,80c-1-3.73-1.61-5.92-2.12-7.24-.9-2.29-2-2.29-4.43-2.61V67.56h23.6v2.62c-2.63.22-4.84.44-4.84,2.73s4.23,16.52,6.05,25h.2c2.72-8.31,7.87-21.34,7.87-23.72,0-3.52-2-3.74-4.84-4.06V67.56h13.61v2.62Z"/><path class="cls-1" d="M426.55,118H391.06v-2.74c6.79-.54,8.76-.65,8.76-4.27,0-3-3.5-11.07-5-14.56H370.13c-3.06,7.86-4.82,12.38-4.82,14.12,0,4.17,5.26,4.49,9,4.71V118H352.05v-2.74c5.92-.89,7.45-4.61,10.73-12.82l24.34-60h3.06L414.62,100c4.92,11.72,6.67,15.45,11.93,15.23V118ZM393.14,92.12,382.06,65.5l-10.3,26.62Z"/><path class="cls-1" d="M470.82,74.38a14.18,14.18,0,0,1,4.38,10.84c0,6.7-3.63,12.37-11.51,14.91-3.17,1-3.17,1-13.8,1-2.09,0-6.15,2.21-6.15,5.47,0,3.73,2.86,3.85,11,4l7.12.1c5.36.12,18,1.21,18,13.38,0,13.57-14.46,16.54-28.15,16.54s-21.7-3.84-21.7-10c0-4.37,3.94-7.66,10.09-8.22v-.22c-4.93-1.74-8.54-3.38-8.54-9.09,0-6.9,8.09-11.17,12.81-12.48v-.22c-8.11-3-13.37-8.87-13.37-16.77,0-8.76,7.44-17.41,22.46-17.41a31.37,31.37,0,0,1,12,2.39h14.24v5.83Zm-27.4,49.29c-2.85,2.31-3.84,3.73-3.84,6.14,0,7,11.52,7.22,13.36,7.22,4.38,0,18.19,0,18.19-7.76,0-4-3.07-5.6-8.75-5.6ZM453.17,98c6.9,0,7.24-7.89,7.24-14.14,0-4.94,0-14.34-7.24-14.34-6.68,0-7.23,7.45-7.23,14.34,0,7.57.76,14.14,7.23,14.14Z"/><path class="cls-1" d="M510.69,118H481.55v-2.63c3.51-.65,5.92-1.09,5.92-6.56V76.57c0-5.49-2.64-6-5.92-6.47V67.48h20.71v8.65h.22c2.3-3.39,7.22-10,14.34-10,7.46,0,9.11,5.91,9.11,8.54,0,2.85-1.54,7.34-7,7.34-6.35,0-6.26-6.46-9.75-6.46-1.64,0-6.47,2.41-6.47,10.4V106.7c0,6.68,1.32,8.32,8,8.65V118Z"/><path class="cls-1" d="M549.26,66.16c14.36,0,24.66,11.5,24.66,26.72,0,14.58-9.75,26.63-24.66,26.63-15.23,0-24.76-12.38-24.76-26.63S534,66.16,549.26,66.16Zm.11,50c7.57,0,8.43-9.32,8.43-23.24,0-16.86-1.86-23.32-8.54-23.32-8.11,0-8.66,10.83-8.66,23.32,0,11.83,0,23.24,8.77,23.24Z"/><path class="cls-1" d="M623.22,66c-2-7.69-8.55-20.28-21.48-20.28C596,45.67,590,49,590,56.07,590,62,592.1,64.39,601.3,69l16.11,8a22.64,22.64,0,0,1,12,20.15c0,9.64-7,22.91-27.17,22.91-10.4,0-15.32-3.74-18.73-3.74-2.31,0-2.84,2-3.27,3.74H577.1V93h3.18c2.18,11.07,8.53,23.44,22.45,23.44,13.14,0,13.69-10.83,13.69-12.27,0-7.33-5.14-10-12.27-13.34l-7.34-3.52c-18.73-9-18.73-18.41-18.73-23.43,0-6.7,3.38-21.6,24.2-21.6,8.78,0,13.92,3.63,17.11,3.63,2.51,0,3.07-1.65,3.62-3.74h3.27V66Z"/><path class="cls-1" d="M678,108c-5,7.14-12.27,11.51-20.92,11.51-14,0-23.45-11.62-23.45-25.1,0-21.57,15.56-28.25,25.87-28.25,7.77,0,17,4,17,11.93,0,7-6.59,7-7.45,7-6.14,0-6.14-5.37-6.14-11.27a4.26,4.26,0,0,0-4.5-4.27c-8.54,0-9.31,13.45-9.31,18.39,0,15.37,6.68,24.22,15.23,24.22,6.23,0,9.09-3.17,11.72-6.15l2,2Z"/><path class="cls-1" d="M704.15,118H678v-2.63c4-1,5.81-1.32,5.81-6.56V76.57c0-4.93-1.64-5.7-5.81-6.47V67.48h21V109.1c0,3.4.87,5.82,5.13,6.25V118ZM691.34,42.27a8.46,8.46,0,0,1,8.43,8.55,8.49,8.49,0,0,1-17,0,8.48,8.48,0,0,1,8.54-8.55Z"/><path class="cls-1" d="M750,105.81c-6.68,10.2-12.92,13.7-21.69,13.7-11.08,0-22.24-8.1-22.24-26.84,0-16.21,10-26.51,22.57-26.51,19.06,0,20.48,19.06,20.82,25H721.89c.33,9.32,2.74,20.47,13.15,20.47,6.46,0,10.29-4.81,12.36-7.34l2.64,1.54ZM736,87.09c-.1-3.41-.1-9.1-1-12.39-.66-2.4-2.08-5.14-5.92-5.14-4,0-7.78,2.4-7.78,17.53Z"/><path class="cls-1" d="M807.77,118H782v-2.63c3.62-.33,5.15-2.19,5.15-6.25V82.58c0-3.06-.11-9.07-6-9.07-4.38,0-9.1,5.35-9.1,6.34V109.1c0,2.51.34,5.69,5.38,6.25V118H751v-2.63c4-.76,5.81-1.21,5.81-6.56V76.57c0-4.93-1.42-5.82-5.81-6.47V67.48h20.93v7.88h.22a17.93,17.93,0,0,1,15.55-9.2c6,0,14.69,3.4,14.69,15.45V109.1c0,2.63,0,6,5.37,6.25V118Z"/><path class="cls-1" d="M853.44,108c-5,7.14-12.26,11.51-20.93,11.51-14,0-23.43-11.62-23.43-25.1,0-21.57,15.54-28.25,25.86-28.25,7.77,0,17,4,17,11.93,0,7-6.58,7-7.45,7-6.13,0-6.13-5.37-6.13-11.27a4.26,4.26,0,0,0-4.49-4.27c-8.56,0-9.31,13.45-9.31,18.39,0,15.37,6.68,24.22,15.22,24.22,6.24,0,9.1-3.17,11.72-6.15l2,2Z"/><path class="cls-1" d="M898.36,105.81c-6.69,10.2-13,13.7-21.71,13.7-11.06,0-22.24-8.1-22.24-26.84,0-16.21,10-26.51,22.56-26.51,19.07,0,20.51,19.06,20.84,25H870.19c.34,9.32,2.73,20.47,13.16,20.47,6.46,0,10.29-4.81,12.37-7.34l2.64,1.54Zm-14-18.72c-.09-3.41-.09-9.1-1-12.39-.67-2.4-2.09-5.14-5.91-5.14-4.07,0-7.8,2.4-7.8,17.53Z"/><path class="cls-1" d="M931.54,82.26c-2.31-7.77-7.36-12.5-13.6-12.5-3.94,0-7,2.86-7,6.26,0,11.17,25.64,8.64,25.64,26.62,0,10.4-7,16.87-17.2,16.87-5.47,0-12.93-3.18-13.93-3.18-1.19,0-1.85.88-3,3.08h-2.73V101.32h3.07c.66,3,3.29,14.46,15.45,14.46,5.48,0,7.77-3.94,7.77-7.22,0-10.1-26.07-9.43-26.07-26.3,0-9.64,7.34-16.1,17.42-16.1,5.15,0,9.64,2.39,11.72,2.39a2.64,2.64,0,0,0,2.74-2.16h2.41V82.26Z"/></g></svg>