<?xml version="1.0" encoding="utf-8"?>
<!-- Generator: Adobe Illustrator 24.0.3, SVG Export Plug-In . SVG Version: 6.00 Build 0)  -->
<svg version="1.1" id="Capa_1" xmlns="http://www.w3.org/2000/svg" xmlns:xlink="http://www.w3.org/1999/xlink" x="0px" y="0px"
	 viewBox="0 0 970.9 765.4" style="enable-background:new 0 0 970.9 765.4;" xml:space="preserve">
<style type="text/css">
	.st0{fill:#FFFFFF;}
	.st1{fill:#FFFFFF;stroke:#FFFFFF;stroke-width:0;stroke-linecap:round;stroke-linejoin:round;}
</style>
<g>
	<path class="st0" d="M833.1,151.6c-82.3-85.1-251.2-80.2-340.6-80.2C376,71.4,195.8,77,140.2,181.2
		c-24.2,45.5-38.1,109.5-38.1,196.3c0,93.9,7.2,174.9,44.8,218.2c80.8,93.1,279.2,89.8,352,89.8c78,0,307.6-3.5,352.4-104.2
		c20.6-46.4,37.3-121.7,37.3-203.7C888.6,272,875.9,195.9,833.1,151.6z M817.8,557.4c-40.2,88-251.2,89.9-321.2,89.9
		c-65.4,0-243.6,2.9-316.1-78.5c-33.7-37.8-40.2-108.6-40.2-190.7c0-75.9,5-132.3,26.8-172c53.6-97.5,219.1-95.7,323.7-95.7
		c80.3,0,229.3-18.7,307.9,65.1c37.2,39.8,47.8,110.3,47.8,202.7C846.5,449.8,836.3,516.8,817.8,557.4z"/>
	<path class="st1" d="M488.2,117c-102.2,0-263.9-1.8-316.3,93.5c-21.3,38.8-22,93.4-22,167.5c0,80.1,2.1,149.9,35.1,186.9
		c70.9,79.6,245.1,76.7,308.9,76.7c68.4,0,274.6-1.9,313.9-87.9c18.1-39.6,28.1-105.1,28.1-175.1c0-90.2-10.4-159.1-46.8-198
		C712.3,98.7,566.7,117,488.2,117z M658,202h62.8c0,0,43.2,6,43.2,53.4c0,47.4-24,40.5-24,40.5l32.3,68.9h-50.1L702.6,304v60.8H658
		V202z M222.4,357.3v-46.4c0,0,9.9,7.9,14.4,10.3c4.4,2.4,6.8,5.5,16.8,5.5c3.8,0,9.6-3.8,9.6-11.3S251.5,301,251.5,301
		s-29.2-14.5-29.2-48.8s22-49.4,41.2-50.1s37.1,10.3,37.1,10.3V256c0,0-7.4-5.3-11.2-9c-4.2-3.8-8.7-6.7-14.7-6.7
		s-10.4,4.1-10.8,9.6c-0.8,10.3,20.4,22,25.2,26.1c4.8,4.1,16.1,17.1,16.1,39.1s-22.7,49.8-51.2,49.8S222.4,357.3,222.4,357.3z
		 M292.2,496h-22.3l0.3,53.6h-45.7V386.8h63.9c0,0,42.6-4.4,42.6,56S292.2,496,292.2,496z M324.6,331.3V205.6h40.5V312
		c0,0-0.3,11.7,10.6,11.7c11,0,9.6-11.7,9.6-11.7V205.6h40.9v125.7c0,0,2.4,33.6-49.8,33.6C324.2,364.9,324.6,331.3,324.6,331.3z
		 M406,554.1c0,0-63.2,5.4-63.2-81.6S406,391,406,391s57.4-3.5,57.3,79.3C463.3,553.1,406,554.1,406,554.1z M551.9,549.6h-76.6
		V395.1H521v117.4h30.9V549.6z M513.1,311.3h-22.3l0.3,53.6h-45.7V202.1h63.9c0,0,42.6-4.4,42.6,56S513.1,311.3,513.1,311.3z
		 M562,203.5h83.1v40.9h-38.8v19.1h35V305h-34v18.4h36.4V365H562V203.5z M646.6,549.6h-76.5V395.1h45.6v117.4h30.9V549.6z
		 M716.9,554.1c0,0-63.2,5.4-63.2-81.6s63.2-81.5,63.2-81.5s57.4-3.5,57.3,79.3C774.2,553.1,716.9,554.1,716.9,554.1z"/>
	<path class="st1" d="M491.1,239.5v34.7c0,0,19.6,0.7,19.6-17.4C510.7,238.8,491.1,239.5,491.1,239.5z"/>
	<path class="st1" d="M270.2,424.2v34.7c0,0,19.5,0.7,19.6-17.4C289.8,423.5,270.2,424.2,270.2,424.2z"/>
	<path class="st1" d="M714,432.5c0,0-17-2.4-17,40s17,40,17,40s19.1,2.4,19.1-40S714,432.5,714,432.5z"/>
	<path class="st1" d="M403.1,432.5c0,0-17-2.4-17,40s17,40,17,40s19.1,2.4,19.1-40S403.1,432.5,403.1,432.5z"/>
	<path class="st1" d="M721.6,256.9c0-17.3-19.7-17.3-19.7-17.3v38.1C701.9,277.7,721.6,277.7,721.6,256.9z"/>
</g>
</svg>
