<?xml version="1.0" encoding="utf-8"?>
<!-- Generator: Adobe Illustrator 24.0.3, SVG Export Plug-In . SVG Version: 6.00 Build 0)  -->
<svg version="1.1" id="Layer_1" xmlns="http://www.w3.org/2000/svg" xmlns:xlink="http://www.w3.org/1999/xlink" x="0px" y="0px"
	 viewBox="0 0 24 24" style="enable-background:new 0 0 24 24;" xml:space="preserve">
<style type="text/css">
	.st0{fill:#D81FB9;}
</style>
<path class="st0" d="M1,9.5C1,8.1,2.1,7,3.5,7S6,8.1,6,9.5S4.9,12,3.5,12S1,10.9,1,9.5z M20.5,12c1.4,0,2.5-1.1,2.5-2.5
	S21.9,7,20.5,7S18,8.1,18,9.5S19.1,12,20.5,12z M24,16.1V22c0,1.1-0.9,2-2,2h-2c-1.1,0-2-0.9-2-2v-4.9l-0.9,0.7
	c-0.2,0.1-0.4,0.2-0.6,0.2H14c-0.6,0-1-0.4-1-1s0.4-1,1-1h2.1c0,0,3-2.4,3.1-2.4c0.6-0.5,1.5-0.7,2.3-0.6C22.9,13.3,24,14.6,24,16.1
	L24,16.1z M22,16.1c0-0.5-0.4-1-0.8-1.1c-0.6-0.1-1.2,0.4-1.2,1v6h2V16.1z M14,20h-4c-1.1,0-2,0.9-2,2v1c0,0.6,0.4,1,1,1s1-0.4,1-1
	v-1h4v1c0,0.6,0.4,1,1,1s1-0.4,1-1v-1C16,20.9,15.1,20,14,20z M10,18H7.5c-0.2,0-0.4-0.1-0.6-0.2L6,17.1V22c0,1.1-0.9,2-2,2H2
	c-1.1,0-2-0.9-2-2v-5.9c0-1.5,1.1-2.8,2.5-3.1c0.8-0.1,1.5,0.1,2.2,0.5c0.1,0,3.2,2.5,3.2,2.5H10c0.6,0,1,0.4,1,1S10.6,18,10,18z
	 M4,16c0-0.6-0.6-1.1-1.2-1C2.4,15.1,2,15.6,2,16.1V22h2V16z M8,7.4c0.3-1.7,1.6-3,3.2-3.3l0,0c1.2-0.2,2.4,0.1,3.3,0.9
	C15.5,5.7,16,6.8,16,8c0,1.4-0.8,2.7-2,3.4c-0.3,0.2-0.5,0.5-0.5,0.9V13c0,0.6-0.4,1-1,1h-1c-0.6,0-1-0.4-1-1v-0.7
	c0-0.3-0.2-0.7-0.6-0.9C8.5,10.6,7.8,9,8,7.4L8,7.4z M11,9.7c0.4,0.3,0.8,0.6,1,1c0.3-0.4,0.6-0.7,1-1c0.6-0.4,1-1,1-1.7
	c0-1.2-1.2-2.2-2.4-2c-0.8,0.1-1.5,0.8-1.6,1.6C9.9,8.5,10.3,9.3,11,9.7L11,9.7z M12,3c0.6,0,1-0.4,1-1V1c0-0.6-0.4-1-1-1
	s-1,0.4-1,1v1C11,2.6,11.4,3,12,3z M16,4c0.3,0,0.5-0.1,0.7-0.3L17.4,3c0.4-0.4,0.4-1,0-1.4s-1-0.4-1.4,0l-0.7,0.7
	c-0.4,0.4-0.4,1,0,1.4C15.5,3.9,15.7,4,16,4z M7.3,3.7c0.4,0.4,1,0.4,1.4,0s0.4-1,0-1.4L8,1.6c-0.4-0.4-1-0.4-1.4,0s-0.4,1,0,1.4
	C6.6,3,7.3,3.7,7.3,3.7z"/>
</svg>
