<?xml version="1.0" encoding="utf-8"?>
<!-- Generator: Adobe Illustrator 24.0.3, SVG Export Plug-In . SVG Version: 6.00 Build 0)  -->
<svg version="1.1" id="Layer_1" xmlns="http://www.w3.org/2000/svg" xmlns:xlink="http://www.w3.org/1999/xlink" x="0px" y="0px"
	 viewBox="0 0 512 512" style="enable-background:new 0 0 512 512;" xml:space="preserve">
<style type="text/css">
	.st0{fill:#D81FB9;}
</style>
<path class="st0" d="M480,448H117.3C87.9,448,64,424.1,64,394.7V32C64,14.3,49.7,0,32,0S0,14.3,0,32v362.7
	C0.1,459.4,52.6,511.9,117.3,512H480c17.7,0,32-14.3,32-32S497.7,448,480,448z"/>
<path class="st0" d="M480,84.8h-65.8c-11.8,0-21.3,9.6-21.3,21.3c0,5.7,2.2,11.1,6.2,15.1l15.6,15.6l0,0l-76.5,76.5
	c-4.2,4.2-10.9,4.2-15.1,0c0,0,0,0,0,0l-3.6-3.6c-29.5-28.2-76.1-28.2-105.6,0l-87.5,87.5c-12.7,12.3-13.1,32.5-0.8,45.2
	c12.3,12.7,32.5,13.1,45.2,0.8c0.3-0.3,0.5-0.5,0.8-0.8l87.5-87.5c4.2-4.2,10.9-4.2,15.1,0c0,0,0,0,0,0l3.6,3.6
	c29.6,28.2,76,28.2,105.6,0l76.5-76.5l0,0l15.6,15.6c8.3,8.3,21.8,8.4,30.2,0c4-4,6.3-9.4,6.3-15.1v-65.8
	C512,99.1,497.7,84.8,480,84.8z"/>
</svg>
